<svg xmlns="http://www.w3.org/2000/svg" width="198" height="134" fill="none" viewBox="0 0 198 134"><path fill="url(#a)" stroke="#0500FF" stroke-miterlimit="10" stroke-width=".546" d="M174.622 133.131a23.16 23.16 0 0 1-4.26.554 24.405 24.405 0 0 1-6.033-.542c-13.913-3.029-23.782-17.422-22.458-32.775l3.527-41.007c1.336-15.476 14.277-26.957 29.458-23.658 13.925 3.03 23.793 17.428 22.463 32.782l-3.527 41c-1.034 11.967-8.828 21.294-19.176 23.646h.006Zm-6.353-81.206c-3.386.77-5.91 4.229-6.311 8.858l-3.527 41.001c-.597 6.95 3.724 13.869 9.437 15.113a7.306 7.306 0 0 0 1.872.172c3.971-.147 7.049-3.853 7.492-9.019l3.527-41c.591-6.833-3.823-13.894-9.437-15.113a7.5 7.5 0 0 0-1.865-.172 6.256 6.256 0 0 0-1.188.154v.006Z"/><path fill="url(#b)" stroke="#0500FF" stroke-miterlimit="10" stroke-width=".546" d="M174.622 133.131a23.16 23.16 0 0 1-4.26.554 24.405 24.405 0 0 1-6.033-.542c-13.913-3.029-23.782-17.422-22.458-32.775l3.527-41.007c1.336-15.476 14.277-26.957 29.458-23.658 13.925 3.03 23.793 17.428 22.463 32.782l-3.527 41c-1.034 11.967-8.828 21.294-19.176 23.646h.006Zm-6.353-81.206c-3.386.77-5.91 4.229-6.311 8.858l-3.527 41.001c-.597 6.95 3.724 13.869 9.437 15.113a7.306 7.306 0 0 0 1.872.172c3.971-.147 7.049-3.853 7.492-9.019l3.527-41c.591-6.833-3.823-13.894-9.437-15.113a7.5 7.5 0 0 0-1.865-.172 6.256 6.256 0 0 0-1.188.154v.006Z"/><path fill="#1B1B1C" d="M157.498 97.174c1.594-18.641 2.111-29.778 3.262-36.5l-14.19 1.373v5.534c0 8.25 8.81 20.648 10.928 29.587v.006Zm34.442 13.549 4.057-45.014c0-1.859-.209-3.804-.616-5.762-3.398 2.192-5.571 6.507-6.107 13.174l-2.955 36.839c-1.114 13.864-13.857 22.328-27.69 19.681 4.617 2.432 9.985 3.361 15.68 2.075 11.69-2.666 17.065-14.633 17.637-20.993h-.006Z"/><path fill="url(#c)" stroke="#0500FF" stroke-miterlimit="10" stroke-width=".546" d="M63.144 66.758c-9.271-1.502-10.983-7.295-11.284-9.72-.758-6.021 3.478-11.087 12.589-15.052l31.089-13.531c10.317-4.494 24.544-6.834 33.089-5.448l1.484.289-4.143 16.117c-4.808-.782-15.766.788-23.794 4.278L71.085 57.222l-7.935 9.53-.006.006Z"/><path fill="#1B1B1C" d="M102.26 30.303c.831 4.39-2.358 14.387-2.358 14.387l10.601-5.412-8.243-8.975Zm-50.4 26.734c.265 2.112 1.594 6.778 8.07 8.939 1.158-1.145 1.872-2.561 1.564-4.279-1.034-5.86 2.37-11.352 6.97-11.155l1.945-3.373-6.015-5.16c-9.074 3.96-13.291 9.013-12.534 15.028Z"/><path stroke="#0500FF" stroke-linecap="round" stroke-linejoin="round" stroke-width=".546" d="M63.138 66.756c-9.271-1.502-10.983-7.295-11.284-9.72-.757-6.02 3.478-11.087 12.59-15.052l31.088-13.531c10.317-4.494 24.544-6.834 33.089-5.448"/><path stroke="#0500FF" stroke-linecap="round" stroke-linejoin="round" stroke-width=".546" d="M80.227 35.121c2.339-1.016 5.719 1.57 7.547 5.78 1.835 4.212 1.422 8.447-.917 9.463"/><path fill="url(#d)" d="M67.888 84.667a25.19 25.19 0 0 1-2.74.468c-7.54.892-15.384-1.545-21.51-6.686L11.83 51.781C-.15 41.74-2.748 23.936 6.025 12.098c4.21-5.682 10.422-9.271 17.483-10.108 7.541-.893 15.384 1.545 21.51 6.685l31.809 26.669c11.98 10.04 14.578 27.844 5.805 39.682-3.657 4.938-8.822 8.293-14.744 9.635v.006Zm-43.42-65.994a8.545 8.545 0 0 0-5.09 3.33c-3.577 4.82-2.143 12.627 3.127 17.047l31.809 26.668c2.634 2.21 5.873 3.27 8.883 2.912 1.742-.21 4.21-.979 6.082-3.497 3.577-4.82 2.143-12.632-3.127-17.046L34.343 21.418c-2.635-2.21-5.873-3.268-8.883-2.911-.308.037-.64.092-.992.172v-.006Z"/><path fill="#1B1B1C" d="M85.908 56.207H70.98c.24 1.188.32 2.383.234 3.546v.03c-.031.358-.074.715-.136 1.066 0 .03-.006.068-.012.098-.062.327-.136.64-.228.96-.018.056-.025.112-.043.173a9.93 9.93 0 0 1-.302.85c-.03.073-.049.154-.086.227-.11.271-.246.524-.382.782-.043.08-.073.16-.117.24a9.365 9.365 0 0 1-.621.954c-1.749 2.358-4.033 3.19-5.744 3.454-.117.019-.228.03-.332.043-.308.037-.622.05-.936.056h-.363c-.234 0-.468-.019-.702-.037a8.143 8.143 0 0 1-.665-.08v.012c8.834 2.653 10.502 6.248 10.7 13.131 2.105-.862 16.264-7.215 14.682-25.505h-.019Z"/><path fill="#1B1B1C" d="M74.441 45.255 38.33 14.979c-9.16-7.683-27.801-3.774-22.704 12.442.45-5.898 4.624-10.65 10.977-10.65 5.657 0 9.074 3.527 11.444 5.515C69.35 48.53 73.081 49.57 73.081 59.008c0 1.847-.487 4.192-1.65 6.298 13.088-.573 11.74-12.725 3.01-20.051Z"/><path stroke="#0500FF" stroke-miterlimit="10" stroke-width=".546" d="M67.888 84.667a25.19 25.19 0 0 1-2.74.468c-7.54.892-15.384-1.545-21.51-6.686L11.83 51.781C-.15 41.74-2.748 23.936 6.025 12.098c4.21-5.682 10.422-9.271 17.483-10.108 7.541-.893 15.384 1.545 21.51 6.685l31.809 26.669c11.98 10.04 14.578 27.844 5.805 39.682-3.657 4.938-8.822 8.293-14.744 9.635v.006Zm-43.42-65.994a8.545 8.545 0 0 0-5.09 3.33c-3.577 4.82-2.143 12.627 3.127 17.047l31.809 26.668c2.634 2.21 5.873 3.27 8.883 2.912 1.742-.21 4.21-.979 6.082-3.497 3.577-4.82 2.143-12.632-3.127-17.046L34.343 21.418c-2.635-2.21-5.873-3.268-8.883-2.911-.308.037-.64.092-.992.172v-.006Z"/><path fill="#2D9FFF" d="M169.464 51.772a6.277 6.277 0 0 0-1.189.153l1.189-.153Z"/><path stroke="#0500FF" stroke-linecap="round" stroke-linejoin="round" stroke-width=".546" d="M169.464 51.772a6.277 6.277 0 0 0-1.189.153"/><path fill="url(#e)" d="M171.333 51.944a7.038 7.038 0 0 0-2.155-.16c-.055.025-.104.056-.16.08-1.686.708-4.05.518-6.501-.51L128.129 36.91c-6.347-2.665-11.155-10.004-10.287-15.704.08-.524.21-1.004.376-1.435.437-1.09 1.145-1.828 2.173-2.259 1.674-.708 4.044-.517 6.495.511l34.388 14.436c1.674.702 3.244 1.742 4.629 2.98 2.845-.474 5.855-.419 8.964.258 5.005 1.09 9.48 3.657 13.106 7.197-1.607-10.786-9.48-21.239-20.266-25.764L133.325 2.695c-6.636-2.789-13.507-2.973-19.361-.517-5.134 2.149-9.105 6.212-11.186 11.438a23.27 23.27 0 0 0-1.373 5.091c-2 13.18 6.914 27.906 20.285 33.527l34.382 14.442c5.319 2.235 10.792 2.795 15.772 1.668a21.943 21.943 0 0 0 3.589-1.144 20.42 20.42 0 0 0 5.264-3.202c-.702-5.75-4.593-11.013-9.364-12.047v-.007Z"/><path fill="#1B1B1C" d="M120.034 15.822c.794-.29 1.699-.456 2.733-.456 2.998 0 2.647.167 32.775 12.817 3.989 1.675 8.231 3.048 11.506 5.978l1.151 1.028c.074 0 .154 0 .228-.006.382-.018.757-.03 1.145-.03h.425c.388 0 .782.024 1.17.049.197.012.394.024.591.043.375.03.751.074 1.126.129.234.03.474.074.708.11.148.025.296.044.45.075-1.946-3.202-5.196-5.886-8.317-7.203l-35.626-15.033c-5.202-2.198-8.293-.087-10.072 2.505l.007-.006ZM171.04 66.72c-.566-6.563-3.632-12.535-8.532-15.367 2.45 1.029 4.82 1.22 6.501.511.055-.024.111-.049.16-.08a6.659 6.659 0 0 1 2.154.16c4.365.949 7.991 5.424 9.118 10.577 0 0-4.907 3.503-9.407 4.198h.006Z"/><path stroke="#0500FF" stroke-miterlimit="10" stroke-width=".546" d="M171.333 51.944a7.038 7.038 0 0 0-2.155-.16c-.055.025-.104.056-.16.08-1.686.708-4.05.518-6.501-.51L128.129 36.91c-6.347-2.665-11.155-10.004-10.287-15.704.08-.524.21-1.004.376-1.435.437-1.09 1.145-1.828 2.173-2.259 1.674-.708 4.044-.517 6.495.511l34.388 14.436c1.674.702 3.244 1.742 4.629 2.98 2.845-.474 5.855-.419 8.964.258 5.005 1.09 9.48 3.657 13.106 7.197-1.607-10.786-9.48-21.239-20.266-25.764L133.325 2.695c-6.636-2.789-13.507-2.973-19.361-.517-5.134 2.149-9.105 6.212-11.186 11.438a23.27 23.27 0 0 0-1.373 5.091c-2 13.18 6.914 27.906 20.285 33.527l34.382 14.442c5.319 2.235 10.792 2.795 15.772 1.668a21.943 21.943 0 0 0 3.589-1.144 20.42 20.42 0 0 0 5.264-3.202c-.702-5.75-4.593-11.013-9.364-12.047v-.007Z"/><path fill="url(#f)" d="M83.762 65.309c-7.53 1.705-15.206 2.327-20.617 1.447l2.659-16.407c4.808.782 15.766-.788 23.8-4.278l31.088-13.532c2.962-1.286 3.86-2.148 3.873-2.16-.579.566 4.063-7.37 4.063-7.37 9.271 1.503 10.982 7.302 11.284 9.721.757 6.021-3.478 11.088-12.583 15.052L96.24 61.313c-3.792 1.65-8.108 3.01-12.478 4.002v-.006Z"/><path stroke="#0500FF" stroke-linecap="round" stroke-linejoin="round" stroke-width=".546" d="M65.81 50.35c4.808.781 15.766-.788 23.8-4.279L120.7 32.54c2.961-1.287 3.86-2.149 3.872-2.161"/><path stroke="#0500FF" stroke-linecap="round" stroke-linejoin="round" stroke-width=".546" d="M128.628 23.01c9.271 1.502 10.982 7.301 11.284 9.72.757 6.021-3.478 11.088-12.583 15.052L96.24 61.313c-3.792 1.65-8.108 3.01-12.478 4.002-7.53 1.705-15.206 2.327-20.617 1.447"/><path fill="#1B1B1C" d="M125.699 46.651c9.469-4.118 15.908-11.217 9.075-18.69.744 4.519-1.004 9.271-11.451 13.814l-30.43 13.242C89.33 56.57 85.266 57.85 81.16 58.78c-7.08 1.606-14.3 2.185-19.385 1.36 0 0-4.033-.85-7.825-2.462.868 2.598 3.325 6.224 10.201 7.338 5.085.825 12.306.246 19.386-1.36 4.106-.93 8.169-2.21 11.733-3.762l30.43-13.242Z"/><path stroke="#0500FF" stroke-linecap="round" stroke-linejoin="round" stroke-width=".546" d="M52.293 58.955c.923 2.764 3.534 6.618 10.847 7.806 5.405.88 13.088.265 20.617-1.446 4.371-.992 8.686-2.352 12.479-4.002l31.088-13.531c9.105-3.965 13.341-9.025 12.584-15.052a10.086 10.086 0 0 0-2.58-5.54m15.556-16.276c1.699.714 1.632 4.722-.141 8.951-1.779 4.23-4.593 7.086-6.292 6.372"/><path stroke="#FFAEFE" stroke-linecap="round" stroke-linejoin="round" stroke-width=".546" d="M151.494 22.348c-.782 1.31-1.643 2.37-2.474 3.065"/><path stroke="#0500FF" stroke-linecap="round" stroke-linejoin="round" stroke-width=".546" d="M195.459 90.225c-.099 1.163-3.891 1.791-8.459 1.397-4.574-.394-8.2-1.656-8.102-2.82"/><path stroke="#FFAEFE" stroke-linecap="round" stroke-linejoin="round" stroke-width=".546" d="M193.678 91.352c-1.397.338-3.509.474-5.885.326"/><path stroke="#0500FF" stroke-linecap="round" stroke-linejoin="round" stroke-width=".546" d="M160.138 82.018c-.098 1.163-3.89 1.791-8.458 1.397-4.574-.394-8.2-1.656-8.102-2.82"/><path stroke="#FFAEFE" stroke-linecap="round" stroke-linejoin="round" stroke-width=".546" d="M158.622 83.078c-1.539.431-4.088.585-6.944.339"/><path stroke="#0500FF" stroke-linecap="round" stroke-linejoin="round" stroke-width=".546" d="M39.952 53.674c.604.505-1.293 3.773-4.241 7.289-2.95 3.515-5.83 5.959-6.434 5.448m31.839-44.245c.603.505-1.293 3.774-4.241 7.289-2.95 3.515-5.83 5.96-6.434 5.448m99.471 11.157c1.699.715 1.631 4.722-.142 8.952-1.779 4.229-4.592 7.085-6.291 6.371m-36.635-22.817c2.339-1.015 5.719 1.57 7.547 5.781 1.835 4.21 1.422 8.446-.917 9.462"/><path stroke="#FFAEFE" stroke-linecap="round" stroke-linejoin="round" stroke-width=".546" d="M114.83 45.48c.696 2.044.868 4.02.554 5.56m-59.05-20.962c-1.508 1.736-2.96 3.164-4.063 4.02"/><defs><linearGradient id="a" x1="184.244" x2="194.906" y1="83.463" y2="82.767" gradientUnits="userSpaceOnUse"><stop stop-color="#FFAEFE"/><stop offset="1" stop-color="#FFF465"/></linearGradient><linearGradient id="b" x1="184.416" x2="188.935" y1="56.517" y2="48.003" gradientUnits="userSpaceOnUse"><stop stop-color="#FFF465" stop-opacity="0"/><stop offset="1" stop-color="#FFF465"/></linearGradient><linearGradient id="c" x1="98.08" x2="94.374" y1="55" y2="47.582" gradientUnits="userSpaceOnUse"><stop stop-color="#FFAEFE"/><stop offset="1" stop-color="#FFF465"/></linearGradient><linearGradient id="d" x1="55.379" x2="59.78" y1="29.034" y2="23.235" gradientUnits="userSpaceOnUse"><stop stop-color="#FFAEFE"/><stop offset="1" stop-color="#FFF465"/></linearGradient><linearGradient id="e" x1="150.205" x2="152.637" y1="19.834" y2="14.386" gradientUnits="userSpaceOnUse"><stop stop-color="#FFAEFE"/><stop offset="1" stop-color="#FFF465"/></linearGradient><linearGradient id="f" x1="103.19" x2="99.484" y1="52.442" y2="45.024" gradientUnits="userSpaceOnUse"><stop stop-color="#FFAEFE"/><stop offset="1" stop-color="#FFF465"/></linearGradient></defs></svg>