<svg xmlns="http://www.w3.org/2000/svg" width="232" height="153" fill="none" viewBox="0 0 232 153"><path fill="#2D9FFF" stroke="#0500FF" stroke-linecap="round" stroke-linejoin="round" stroke-width=".64" d="M228.518 67h-67.623l-16.719-4.774-57.12-57.12a4.232 4.232 0 0 0-5.971 0L2.467 83.722a4.232 4.232 0 0 0 0 5.97l57.12 57.122 16.41 5.088h67.622c2.321 0 5.563-1.342 7.206-2.985l78.928-78.928c1.643-1.643 1.086-2.986-1.235-2.986V67Z"/><path fill="#1B1B1C" stroke="#0500FF" stroke-linecap="round" stroke-linejoin="round" stroke-width=".64" d="m87.864 3.625 57.119 57.12-84.588 84.588-57.12-57.12a4.221 4.221 0 0 1 0-5.969l78.62-78.619a4.221 4.221 0 0 1 5.969 0Zm73.023 61.645h67.138c2.321 0 2.878 1.342 1.236 2.985l-78.929 78.928c-1.643 1.643-4.885 2.985-7.206 2.985H75.988l84.899-84.899Z"/><path fill="#1B1B1C" stroke="#0500FF" stroke-linecap="round" stroke-linejoin="round" stroke-width=".64" d="m60.404 145.342 15.59 4.831 84.899-84.904-15.9-4.521-84.589 84.594Z"/><path fill="#2D9FFF" stroke="#0500FF" stroke-linecap="round" stroke-linejoin="round" stroke-width=".64" d="m72.055 139.343 79.35-79.35L93.058 1.646 8.638 86.061l53.54 53.539c1.391-.683 4.968-1.967 9.877-.261v.004Z"/><path fill="#48FF91" stroke="#0500FF" stroke-linecap="round" stroke-linejoin="round" stroke-width=".64" d="M93.064 1.639 13.709 80.993c17.155 16.715 46.692 35.159 58.347 58.348l79.35-79.35c-11.655-23.189-41.192-41.633-58.347-58.347l.005-.005Z"/><path fill="#0500FF" d="m98.194 6.396-79.35 79.35c17.412 15.464 42.655 32.581 53.215 53.593l79.35-79.35c-10.56-21.012-35.803-38.129-53.215-53.593Z"/><path fill="url(#a)" stroke="#0500FF" stroke-miterlimit="10" stroke-width=".64" d="m98.043.816-79.35 79.35c17.984 18.212 41.71 35.988 53.366 59.176l79.35-79.35C139.754 36.804 112.572 16.998 98.043.816Z"/><path fill="#2D9FFF" d="m110.666 13.432-28.117 2.927c.523.95 13.104 23.61 18.604 44.395 6.673 25.21 8.495 41.003 8.495 41.003l41.764-41.764c-8.786-17.475-26.387-33.031-40.746-46.561Z"/><path stroke="#0500FF" stroke-linecap="round" stroke-linejoin="round" stroke-width=".64" d="M61.25 54.863c13.666 12.872 28.81 25.99 39.152 41.4l37.537-37.537C127.327 43.32 111.121 29.547 98.623 17.49L61.25 54.863ZM42.855 84.522c12 11.16 24.444 22.708 33.337 35.953l16.152-16.152c-15.15 3.804-37.107-10.555-49.484-19.801h-.005Z"/><path stroke="#0500FF" stroke-linecap="round" stroke-linejoin="round" stroke-width=".64" d="M101.149 68.159c6.731 0 12.188-5.35 12.188-11.95s-5.457-11.951-12.188-11.951c-6.731 0-12.188 5.35-12.188 11.95s5.457 11.95 12.188 11.95Z"/><path stroke="#0500FF" stroke-linecap="round" stroke-linejoin="round" stroke-width=".64" d="M101.146 68.159c4.098 0 7.419-5.35 7.419-11.95s-3.321-11.951-7.419-11.951c-4.098 0-7.42 5.35-7.42 11.95s3.322 11.95 7.42 11.95Z"/><path stroke="#0500FF" stroke-linecap="round" stroke-linejoin="round" stroke-width=".64" d="M137.94 58.725s-20.532-2.08-36.791-2.516c-16.259-.436-39.903-1.342-39.903-1.342"/><path stroke="#0500FF" stroke-linecap="round" stroke-linejoin="round" stroke-width=".64" d="m98.043.816-79.35 79.35c17.984 18.212 41.71 35.988 53.366 59.176l79.35-79.35C139.754 36.804 112.572 16.998 98.043.816Z"/><path fill="#2D9FFF" stroke="#0500FF" stroke-linecap="round" stroke-linejoin="round" stroke-width=".64" d="M144.407 139.342H72.055c5.132 1.783 7.002 6.305 7.4 7.439h64.952v-7.439Z"/><path fill="#F4F4F7" stroke="#0500FF" stroke-linecap="round" stroke-linejoin="round" stroke-width=".64" d="M144.41 146.78v-7.439l79.35-79.355v7.44l-79.35 79.354Z"/><path fill="#1B1B1C" stroke="#0500FF" stroke-linecap="round" stroke-linejoin="round" stroke-width=".64" d="M223.756 59.986h-72.347l-79.35 79.355h72.347l79.35-79.355Z"/><path fill="#F4F4F7" stroke="#0500FF" stroke-linecap="round" stroke-linejoin="round" stroke-width=".64" d="m82.549 16.354 28.117-2.922-8.999 10.298-19.118-7.376Z"/><path stroke="#48FF91" stroke-linecap="round" stroke-linejoin="round" stroke-width=".64" d="m198.752 59.986-15.871 15.871m.002 0-15.871 15.871m-.004 0L151.137 107.6m.005 0-15.867 15.871m-.004-.002L119.4 139.34m53.723-79.354-15.871 15.871m0 0-15.871 15.871m.001 0L125.516 107.6m.001 0-15.871 15.871m0-.002-15.87 15.871m41.499-15.871h25.622m-51.251 0h25.627m-47.347 0h21.72m41.491-15.869h25.626m-51.247 0h25.621m-47.336 0h21.72m41.491-15.872h25.626m-51.257 0h25.626m-47.335 0h21.715m41.494-15.871h25.626m-51.255 0h25.626m-47.341 0h21.715"/><path fill="#F4F4F7" stroke="#0500FF" stroke-linecap="round" stroke-linejoin="round" stroke-width=".64" d="M151.409 59.988c26.091-23.532 61.196-19.806 61.196-19.806l-79.35 79.35s-35.11-3.726-61.196 19.806l79.35-79.35Z"/><path stroke="#0500FF" stroke-linecap="round" stroke-linejoin="round" stroke-width=".64" d="m195.551 90.702 28.204-28.204m-89.525 79.349h10.177l19.472-19.472M76.04 141.848h50.524M190.6 98.151l26.866-26.862"/><path stroke="#0500FF" stroke-linecap="round" stroke-linejoin="round" stroke-width=".64" d="M94.92 144.342h49.488l38.396-38.391"/><path stroke="#48FF91" stroke-linecap="round" stroke-linejoin="round" stroke-width=".64" d="M184.064 80.041h11.631m-14.131 2.508h11.631m-14.134 2.498h11.635m-14.141 2.5h6.75m-71.325 39.709h11.636m-14.141 2.5h4.075m40.1-18.188h7.25m-9.755 2.5h4.075m-48.245 18.196h11.63"/><defs><linearGradient id="a" x1="79.076" x2="124.639" y1="63.69" y2="109.258" gradientUnits="userSpaceOnUse"><stop stop-color="#48FF91"/><stop offset="1" stop-color="#2D9FFF"/></linearGradient></defs></svg>